<mxfile host="Electron" modified="2024-04-18T13:29:02.776Z" agent="Mozilla/5.0 (Windows NT 10.0; Win64; x64) AppleWebKit/537.36 (KHTML, like Gecko) draw.io/24.2.5 Chrome/120.0.6099.109 Electron/28.1.0 Safari/537.36" etag="3aNjnawgKzrZWdYsfow1" version="24.2.5" type="device">
  <diagram name="페이지-1" id="0MCgnz0HtFP2cZSvJgvZ">
    <mxGraphModel dx="2553" dy="939" grid="1" gridSize="10" guides="1" tooltips="1" connect="1" arrows="1" fold="1" page="1" pageScale="1" pageWidth="827" pageHeight="1169" math="0" shadow="0">
      <root>
        <mxCell id="0" />
        <mxCell id="1" parent="0" />
        <mxCell id="EiC9moipADHDzp91dUvz-6" value="" style="edgeStyle=orthogonalEdgeStyle;rounded=0;orthogonalLoop=1;jettySize=auto;html=1;" edge="1" parent="1" source="EiC9moipADHDzp91dUvz-2" target="EiC9moipADHDzp91dUvz-5">
          <mxGeometry relative="1" as="geometry" />
        </mxCell>
        <mxCell id="EiC9moipADHDzp91dUvz-2" value="start" style="rounded=1;whiteSpace=wrap;html=1;" vertex="1" parent="1">
          <mxGeometry x="320" y="50" width="120" height="60" as="geometry" />
        </mxCell>
        <mxCell id="EiC9moipADHDzp91dUvz-13" value="" style="edgeStyle=orthogonalEdgeStyle;rounded=0;orthogonalLoop=1;jettySize=auto;html=1;" edge="1" parent="1" source="EiC9moipADHDzp91dUvz-5" target="EiC9moipADHDzp91dUvz-11">
          <mxGeometry relative="1" as="geometry" />
        </mxCell>
        <mxCell id="EiC9moipADHDzp91dUvz-5" value="parsing Input&lt;div&gt;using getopt()&lt;/div&gt;" style="rounded=0;whiteSpace=wrap;html=1;" vertex="1" parent="1">
          <mxGeometry x="320" y="140" width="120" height="60" as="geometry" />
        </mxCell>
        <mxCell id="EiC9moipADHDzp91dUvz-15" style="edgeStyle=orthogonalEdgeStyle;rounded=0;orthogonalLoop=1;jettySize=auto;html=1;entryX=0.5;entryY=0;entryDx=0;entryDy=0;" edge="1" parent="1" source="EiC9moipADHDzp91dUvz-11" target="EiC9moipADHDzp91dUvz-17">
          <mxGeometry relative="1" as="geometry">
            <mxPoint x="630" y="270" as="targetPoint" />
            <Array as="points">
              <mxPoint x="1400" y="270" />
              <mxPoint x="1400" y="1100" />
              <mxPoint x="360" y="1100" />
            </Array>
          </mxGeometry>
        </mxCell>
        <mxCell id="EiC9moipADHDzp91dUvz-16" value="&amp;gt; 0" style="edgeLabel;html=1;align=center;verticalAlign=middle;resizable=0;points=[];" vertex="1" connectable="0" parent="EiC9moipADHDzp91dUvz-15">
          <mxGeometry x="-0.1684" relative="1" as="geometry">
            <mxPoint x="-950" y="-225" as="offset" />
          </mxGeometry>
        </mxCell>
        <mxCell id="EiC9moipADHDzp91dUvz-19" value="" style="edgeStyle=orthogonalEdgeStyle;rounded=0;orthogonalLoop=1;jettySize=auto;html=1;" edge="1" parent="1" source="EiC9moipADHDzp91dUvz-11" target="EiC9moipADHDzp91dUvz-18">
          <mxGeometry relative="1" as="geometry" />
        </mxCell>
        <mxCell id="EiC9moipADHDzp91dUvz-28" value="0" style="edgeLabel;html=1;align=center;verticalAlign=middle;resizable=0;points=[];" vertex="1" connectable="0" parent="EiC9moipADHDzp91dUvz-19">
          <mxGeometry x="0.5167" relative="1" as="geometry">
            <mxPoint as="offset" />
          </mxGeometry>
        </mxCell>
        <mxCell id="EiC9moipADHDzp91dUvz-11" value="non_flag" style="rhombus;whiteSpace=wrap;html=1;" vertex="1" parent="1">
          <mxGeometry x="320" y="230" width="120" height="80" as="geometry" />
        </mxCell>
        <mxCell id="EiC9moipADHDzp91dUvz-43" value="" style="edgeStyle=orthogonalEdgeStyle;rounded=0;orthogonalLoop=1;jettySize=auto;html=1;" edge="1" parent="1" source="EiC9moipADHDzp91dUvz-17" target="EiC9moipADHDzp91dUvz-42">
          <mxGeometry relative="1" as="geometry" />
        </mxCell>
        <mxCell id="EiC9moipADHDzp91dUvz-17" value="Print error" style="shape=parallelogram;perimeter=parallelogramPerimeter;whiteSpace=wrap;html=1;fixedSize=1;" vertex="1" parent="1">
          <mxGeometry x="300" y="1120" width="120" height="60" as="geometry" />
        </mxCell>
        <mxCell id="EiC9moipADHDzp91dUvz-24" value="" style="edgeStyle=orthogonalEdgeStyle;rounded=0;orthogonalLoop=1;jettySize=auto;html=1;" edge="1" parent="1" source="EiC9moipADHDzp91dUvz-18" target="EiC9moipADHDzp91dUvz-23">
          <mxGeometry relative="1" as="geometry" />
        </mxCell>
        <mxCell id="EiC9moipADHDzp91dUvz-27" value="&amp;gt;0" style="edgeLabel;html=1;align=center;verticalAlign=middle;resizable=0;points=[];" vertex="1" connectable="0" parent="EiC9moipADHDzp91dUvz-24">
          <mxGeometry x="0.32" y="1" relative="1" as="geometry">
            <mxPoint y="1" as="offset" />
          </mxGeometry>
        </mxCell>
        <mxCell id="EiC9moipADHDzp91dUvz-30" value="" style="edgeStyle=orthogonalEdgeStyle;rounded=0;orthogonalLoop=1;jettySize=auto;html=1;" edge="1" parent="1" source="EiC9moipADHDzp91dUvz-18" target="EiC9moipADHDzp91dUvz-29">
          <mxGeometry relative="1" as="geometry" />
        </mxCell>
        <mxCell id="EiC9moipADHDzp91dUvz-18" value="aflag + lflag" style="rhombus;whiteSpace=wrap;html=1;" vertex="1" parent="1">
          <mxGeometry x="320" y="330" width="120" height="80" as="geometry" />
        </mxCell>
        <mxCell id="EiC9moipADHDzp91dUvz-25" style="edgeStyle=orthogonalEdgeStyle;rounded=0;orthogonalLoop=1;jettySize=auto;html=1;entryX=0.5;entryY=0;entryDx=0;entryDy=0;" edge="1" parent="1" source="EiC9moipADHDzp91dUvz-23" target="EiC9moipADHDzp91dUvz-17">
          <mxGeometry relative="1" as="geometry">
            <Array as="points">
              <mxPoint x="1400" y="370" />
              <mxPoint x="1400" y="1100" />
              <mxPoint x="360" y="1100" />
            </Array>
          </mxGeometry>
        </mxCell>
        <mxCell id="EiC9moipADHDzp91dUvz-26" value="!= NLST" style="edgeLabel;html=1;align=center;verticalAlign=middle;resizable=0;points=[];" vertex="1" connectable="0" parent="EiC9moipADHDzp91dUvz-25">
          <mxGeometry x="-0.5043" y="1" relative="1" as="geometry">
            <mxPoint x="-625" y="1" as="offset" />
          </mxGeometry>
        </mxCell>
        <mxCell id="EiC9moipADHDzp91dUvz-31" style="edgeStyle=orthogonalEdgeStyle;rounded=0;orthogonalLoop=1;jettySize=auto;html=1;entryX=0.5;entryY=0;entryDx=0;entryDy=0;" edge="1" parent="1" source="EiC9moipADHDzp91dUvz-23" target="EiC9moipADHDzp91dUvz-29">
          <mxGeometry relative="1" as="geometry">
            <Array as="points">
              <mxPoint x="530" y="420" />
              <mxPoint x="380" y="420" />
            </Array>
          </mxGeometry>
        </mxCell>
        <mxCell id="EiC9moipADHDzp91dUvz-33" value="NLST" style="edgeLabel;html=1;align=center;verticalAlign=middle;resizable=0;points=[];" vertex="1" connectable="0" parent="EiC9moipADHDzp91dUvz-31">
          <mxGeometry x="-0.2824" y="4" relative="1" as="geometry">
            <mxPoint as="offset" />
          </mxGeometry>
        </mxCell>
        <mxCell id="EiC9moipADHDzp91dUvz-23" value="command" style="rhombus;whiteSpace=wrap;html=1;" vertex="1" parent="1">
          <mxGeometry x="470" y="330" width="120" height="80" as="geometry" />
        </mxCell>
        <mxCell id="EiC9moipADHDzp91dUvz-36" style="edgeStyle=orthogonalEdgeStyle;rounded=0;orthogonalLoop=1;jettySize=auto;html=1;entryX=0.5;entryY=0;entryDx=0;entryDy=0;" edge="1" parent="1" source="EiC9moipADHDzp91dUvz-29" target="EiC9moipADHDzp91dUvz-35">
          <mxGeometry relative="1" as="geometry">
            <Array as="points">
              <mxPoint x="380" y="520" />
              <mxPoint x="-80" y="520" />
            </Array>
          </mxGeometry>
        </mxCell>
        <mxCell id="EiC9moipADHDzp91dUvz-52" value="NLST" style="edgeLabel;html=1;align=center;verticalAlign=middle;resizable=0;points=[];" vertex="1" connectable="0" parent="EiC9moipADHDzp91dUvz-36">
          <mxGeometry x="0.8449" y="4" relative="1" as="geometry">
            <mxPoint as="offset" />
          </mxGeometry>
        </mxCell>
        <mxCell id="EiC9moipADHDzp91dUvz-56" style="edgeStyle=orthogonalEdgeStyle;rounded=0;orthogonalLoop=1;jettySize=auto;html=1;entryX=0.5;entryY=0;entryDx=0;entryDy=0;" edge="1" parent="1" source="EiC9moipADHDzp91dUvz-29" target="EiC9moipADHDzp91dUvz-54">
          <mxGeometry relative="1" as="geometry">
            <Array as="points">
              <mxPoint x="380" y="520" />
              <mxPoint x="70" y="520" />
            </Array>
          </mxGeometry>
        </mxCell>
        <mxCell id="EiC9moipADHDzp91dUvz-57" value="LIST" style="edgeLabel;html=1;align=center;verticalAlign=middle;resizable=0;points=[];" vertex="1" connectable="0" parent="EiC9moipADHDzp91dUvz-56">
          <mxGeometry x="0.8053" y="-1" relative="1" as="geometry">
            <mxPoint as="offset" />
          </mxGeometry>
        </mxCell>
        <mxCell id="EiC9moipADHDzp91dUvz-64" style="edgeStyle=orthogonalEdgeStyle;rounded=0;orthogonalLoop=1;jettySize=auto;html=1;entryX=0.5;entryY=0;entryDx=0;entryDy=0;" edge="1" parent="1" source="EiC9moipADHDzp91dUvz-29" target="EiC9moipADHDzp91dUvz-66">
          <mxGeometry relative="1" as="geometry">
            <mxPoint x="220" y="540" as="targetPoint" />
            <Array as="points">
              <mxPoint x="380" y="520" />
              <mxPoint x="210" y="520" />
            </Array>
          </mxGeometry>
        </mxCell>
        <mxCell id="EiC9moipADHDzp91dUvz-65" value="PWD" style="edgeLabel;html=1;align=center;verticalAlign=middle;resizable=0;points=[];" vertex="1" connectable="0" parent="EiC9moipADHDzp91dUvz-64">
          <mxGeometry x="0.6" y="-2" relative="1" as="geometry">
            <mxPoint as="offset" />
          </mxGeometry>
        </mxCell>
        <mxCell id="EiC9moipADHDzp91dUvz-74" value="" style="edgeStyle=orthogonalEdgeStyle;rounded=0;orthogonalLoop=1;jettySize=auto;html=1;exitX=0.5;exitY=1;exitDx=0;exitDy=0;" edge="1" parent="1" source="EiC9moipADHDzp91dUvz-29" target="EiC9moipADHDzp91dUvz-72">
          <mxGeometry relative="1" as="geometry">
            <Array as="points">
              <mxPoint x="380" y="520" />
              <mxPoint x="360" y="520" />
            </Array>
          </mxGeometry>
        </mxCell>
        <mxCell id="EiC9moipADHDzp91dUvz-75" value="CWD" style="edgeLabel;html=1;align=center;verticalAlign=middle;resizable=0;points=[];" vertex="1" connectable="0" parent="EiC9moipADHDzp91dUvz-74">
          <mxGeometry x="0.0273" y="1" relative="1" as="geometry">
            <mxPoint as="offset" />
          </mxGeometry>
        </mxCell>
        <mxCell id="EiC9moipADHDzp91dUvz-84" style="edgeStyle=orthogonalEdgeStyle;rounded=0;orthogonalLoop=1;jettySize=auto;html=1;entryX=0.5;entryY=0;entryDx=0;entryDy=0;" edge="1" parent="1" source="EiC9moipADHDzp91dUvz-29" target="EiC9moipADHDzp91dUvz-83">
          <mxGeometry relative="1" as="geometry">
            <Array as="points">
              <mxPoint x="380" y="520" />
              <mxPoint x="510" y="520" />
            </Array>
          </mxGeometry>
        </mxCell>
        <mxCell id="EiC9moipADHDzp91dUvz-85" value="CDUP" style="edgeLabel;html=1;align=center;verticalAlign=middle;resizable=0;points=[];" vertex="1" connectable="0" parent="EiC9moipADHDzp91dUvz-84">
          <mxGeometry x="0.4542" y="1" relative="1" as="geometry">
            <mxPoint as="offset" />
          </mxGeometry>
        </mxCell>
        <mxCell id="EiC9moipADHDzp91dUvz-118" style="edgeStyle=orthogonalEdgeStyle;rounded=0;orthogonalLoop=1;jettySize=auto;html=1;entryX=0.5;entryY=0;entryDx=0;entryDy=0;" edge="1" parent="1" source="EiC9moipADHDzp91dUvz-29" target="EiC9moipADHDzp91dUvz-117">
          <mxGeometry relative="1" as="geometry">
            <Array as="points">
              <mxPoint x="380" y="520" />
              <mxPoint x="660" y="520" />
            </Array>
          </mxGeometry>
        </mxCell>
        <mxCell id="EiC9moipADHDzp91dUvz-119" value="MKD" style="edgeLabel;html=1;align=center;verticalAlign=middle;resizable=0;points=[];" vertex="1" connectable="0" parent="EiC9moipADHDzp91dUvz-118">
          <mxGeometry x="0.6744" y="-2" relative="1" as="geometry">
            <mxPoint as="offset" />
          </mxGeometry>
        </mxCell>
        <mxCell id="EiC9moipADHDzp91dUvz-168" style="edgeStyle=orthogonalEdgeStyle;rounded=0;orthogonalLoop=1;jettySize=auto;html=1;entryX=0.5;entryY=0;entryDx=0;entryDy=0;" edge="1" parent="1" source="EiC9moipADHDzp91dUvz-29" target="EiC9moipADHDzp91dUvz-160">
          <mxGeometry relative="1" as="geometry">
            <Array as="points">
              <mxPoint x="380" y="520" />
              <mxPoint x="830" y="520" />
            </Array>
          </mxGeometry>
        </mxCell>
        <mxCell id="EiC9moipADHDzp91dUvz-169" value="DELE" style="edgeLabel;html=1;align=center;verticalAlign=middle;resizable=0;points=[];" vertex="1" connectable="0" parent="EiC9moipADHDzp91dUvz-168">
          <mxGeometry x="0.7834" y="-1" relative="1" as="geometry">
            <mxPoint y="1" as="offset" />
          </mxGeometry>
        </mxCell>
        <mxCell id="EiC9moipADHDzp91dUvz-191" style="edgeStyle=orthogonalEdgeStyle;rounded=0;orthogonalLoop=1;jettySize=auto;html=1;entryX=0.5;entryY=0;entryDx=0;entryDy=0;" edge="1" parent="1" source="EiC9moipADHDzp91dUvz-29" target="EiC9moipADHDzp91dUvz-183">
          <mxGeometry relative="1" as="geometry">
            <Array as="points">
              <mxPoint x="380" y="520" />
              <mxPoint x="1000" y="520" />
            </Array>
          </mxGeometry>
        </mxCell>
        <mxCell id="EiC9moipADHDzp91dUvz-199" style="edgeStyle=orthogonalEdgeStyle;rounded=0;orthogonalLoop=1;jettySize=auto;html=1;entryX=0.5;entryY=0;entryDx=0;entryDy=0;" edge="1" parent="1" source="EiC9moipADHDzp91dUvz-29" target="EiC9moipADHDzp91dUvz-198">
          <mxGeometry relative="1" as="geometry">
            <Array as="points">
              <mxPoint x="380" y="520" />
              <mxPoint x="1150" y="520" />
            </Array>
          </mxGeometry>
        </mxCell>
        <mxCell id="EiC9moipADHDzp91dUvz-200" value="RNFR" style="edgeLabel;html=1;align=center;verticalAlign=middle;resizable=0;points=[];" vertex="1" connectable="0" parent="EiC9moipADHDzp91dUvz-199">
          <mxGeometry x="0.8673" y="-1" relative="1" as="geometry">
            <mxPoint as="offset" />
          </mxGeometry>
        </mxCell>
        <mxCell id="EiC9moipADHDzp91dUvz-208" style="edgeStyle=orthogonalEdgeStyle;rounded=0;orthogonalLoop=1;jettySize=auto;html=1;entryX=0.5;entryY=0;entryDx=0;entryDy=0;" edge="1" parent="1" source="EiC9moipADHDzp91dUvz-29" target="EiC9moipADHDzp91dUvz-207">
          <mxGeometry relative="1" as="geometry">
            <Array as="points">
              <mxPoint x="380" y="520" />
              <mxPoint x="1301" y="520" />
            </Array>
          </mxGeometry>
        </mxCell>
        <mxCell id="EiC9moipADHDzp91dUvz-209" value="QUIT" style="edgeLabel;html=1;align=center;verticalAlign=middle;resizable=0;points=[];" vertex="1" connectable="0" parent="EiC9moipADHDzp91dUvz-208">
          <mxGeometry x="0.8935" y="-3" relative="1" as="geometry">
            <mxPoint as="offset" />
          </mxGeometry>
        </mxCell>
        <mxCell id="EiC9moipADHDzp91dUvz-29" value="command" style="rhombus;whiteSpace=wrap;html=1;" vertex="1" parent="1">
          <mxGeometry x="320" y="430" width="120" height="80" as="geometry" />
        </mxCell>
        <mxCell id="EiC9moipADHDzp91dUvz-41" value="" style="edgeStyle=orthogonalEdgeStyle;rounded=0;orthogonalLoop=1;jettySize=auto;html=1;" edge="1" parent="1" source="EiC9moipADHDzp91dUvz-35" target="EiC9moipADHDzp91dUvz-38">
          <mxGeometry relative="1" as="geometry" />
        </mxCell>
        <mxCell id="EiC9moipADHDzp91dUvz-35" value="print command" style="shape=parallelogram;perimeter=parallelogramPerimeter;whiteSpace=wrap;html=1;fixedSize=1;" vertex="1" parent="1">
          <mxGeometry x="-140" y="540" width="120" height="60" as="geometry" />
        </mxCell>
        <mxCell id="EiC9moipADHDzp91dUvz-46" style="edgeStyle=orthogonalEdgeStyle;rounded=0;orthogonalLoop=1;jettySize=auto;html=1;entryX=0.5;entryY=0;entryDx=0;entryDy=0;" edge="1" parent="1" source="EiC9moipADHDzp91dUvz-38" target="EiC9moipADHDzp91dUvz-17">
          <mxGeometry relative="1" as="geometry">
            <Array as="points">
              <mxPoint y="660" />
              <mxPoint y="1100" />
              <mxPoint x="360" y="1100" />
            </Array>
          </mxGeometry>
        </mxCell>
        <mxCell id="EiC9moipADHDzp91dUvz-47" value="&amp;gt;= 2" style="edgeLabel;html=1;align=center;verticalAlign=middle;resizable=0;points=[];" vertex="1" connectable="0" parent="EiC9moipADHDzp91dUvz-46">
          <mxGeometry x="-0.958" relative="1" as="geometry">
            <mxPoint x="-18" y="10" as="offset" />
          </mxGeometry>
        </mxCell>
        <mxCell id="EiC9moipADHDzp91dUvz-49" value="" style="edgeStyle=orthogonalEdgeStyle;rounded=0;orthogonalLoop=1;jettySize=auto;html=1;" edge="1" parent="1" source="EiC9moipADHDzp91dUvz-38" target="EiC9moipADHDzp91dUvz-48">
          <mxGeometry relative="1" as="geometry" />
        </mxCell>
        <mxCell id="EiC9moipADHDzp91dUvz-50" value="&amp;lt; 2" style="edgeLabel;html=1;align=center;verticalAlign=middle;resizable=0;points=[];" vertex="1" connectable="0" parent="EiC9moipADHDzp91dUvz-49">
          <mxGeometry x="-0.62" relative="1" as="geometry">
            <mxPoint as="offset" />
          </mxGeometry>
        </mxCell>
        <mxCell id="EiC9moipADHDzp91dUvz-38" value="argument except command" style="rhombus;whiteSpace=wrap;html=1;" vertex="1" parent="1">
          <mxGeometry x="-140" y="620" width="120" height="80" as="geometry" />
        </mxCell>
        <mxCell id="EiC9moipADHDzp91dUvz-173" style="edgeStyle=orthogonalEdgeStyle;rounded=0;orthogonalLoop=1;jettySize=auto;html=1;entryX=0.5;entryY=0;entryDx=0;entryDy=0;" edge="1" parent="1" source="EiC9moipADHDzp91dUvz-42" target="EiC9moipADHDzp91dUvz-172">
          <mxGeometry relative="1" as="geometry">
            <Array as="points">
              <mxPoint x="360" y="1280" />
              <mxPoint x="490" y="1280" />
            </Array>
          </mxGeometry>
        </mxCell>
        <mxCell id="EiC9moipADHDzp91dUvz-42" value="exit(1)" style="shape=parallelogram;perimeter=parallelogramPerimeter;whiteSpace=wrap;html=1;fixedSize=1;" vertex="1" parent="1">
          <mxGeometry x="300" y="1200" width="120" height="60" as="geometry" />
        </mxCell>
        <mxCell id="EiC9moipADHDzp91dUvz-96" value="" style="edgeStyle=orthogonalEdgeStyle;rounded=0;orthogonalLoop=1;jettySize=auto;html=1;entryX=0.5;entryY=0;entryDx=0;entryDy=0;" edge="1" parent="1" source="EiC9moipADHDzp91dUvz-48" target="EiC9moipADHDzp91dUvz-108">
          <mxGeometry relative="1" as="geometry">
            <mxPoint x="-80" y="980" as="targetPoint" />
            <Array as="points">
              <mxPoint x="-80" y="820" />
              <mxPoint x="360" y="820" />
            </Array>
          </mxGeometry>
        </mxCell>
        <mxCell id="EiC9moipADHDzp91dUvz-48" value="NLST" style="rounded=0;whiteSpace=wrap;html=1;" vertex="1" parent="1">
          <mxGeometry x="-140" y="730" width="120" height="60" as="geometry" />
        </mxCell>
        <mxCell id="EiC9moipADHDzp91dUvz-59" value="" style="edgeStyle=orthogonalEdgeStyle;rounded=0;orthogonalLoop=1;jettySize=auto;html=1;" edge="1" parent="1" source="EiC9moipADHDzp91dUvz-54" target="EiC9moipADHDzp91dUvz-58">
          <mxGeometry relative="1" as="geometry" />
        </mxCell>
        <mxCell id="EiC9moipADHDzp91dUvz-54" value="print command" style="shape=parallelogram;perimeter=parallelogramPerimeter;whiteSpace=wrap;html=1;fixedSize=1;" vertex="1" parent="1">
          <mxGeometry x="10" y="540" width="120" height="60" as="geometry" />
        </mxCell>
        <mxCell id="EiC9moipADHDzp91dUvz-61" value="" style="edgeStyle=orthogonalEdgeStyle;rounded=0;orthogonalLoop=1;jettySize=auto;html=1;" edge="1" parent="1" source="EiC9moipADHDzp91dUvz-58" target="EiC9moipADHDzp91dUvz-60">
          <mxGeometry relative="1" as="geometry" />
        </mxCell>
        <mxCell id="EiC9moipADHDzp91dUvz-58" value="argument except command" style="rhombus;whiteSpace=wrap;html=1;" vertex="1" parent="1">
          <mxGeometry x="10" y="620" width="120" height="80" as="geometry" />
        </mxCell>
        <mxCell id="EiC9moipADHDzp91dUvz-98" value="" style="edgeStyle=orthogonalEdgeStyle;rounded=0;orthogonalLoop=1;jettySize=auto;html=1;entryX=0.5;entryY=0;entryDx=0;entryDy=0;" edge="1" parent="1" source="EiC9moipADHDzp91dUvz-60" target="EiC9moipADHDzp91dUvz-108">
          <mxGeometry relative="1" as="geometry">
            <mxPoint x="70" y="820" as="targetPoint" />
            <Array as="points">
              <mxPoint x="70" y="805" />
              <mxPoint x="71" y="805" />
              <mxPoint x="71" y="820" />
              <mxPoint x="360" y="820" />
            </Array>
          </mxGeometry>
        </mxCell>
        <mxCell id="EiC9moipADHDzp91dUvz-60" value="LIST" style="rounded=0;whiteSpace=wrap;html=1;" vertex="1" parent="1">
          <mxGeometry x="10" y="730" width="120" height="60" as="geometry" />
        </mxCell>
        <mxCell id="EiC9moipADHDzp91dUvz-67" style="edgeStyle=orthogonalEdgeStyle;rounded=0;orthogonalLoop=1;jettySize=auto;html=1;entryX=0.5;entryY=0;entryDx=0;entryDy=0;" edge="1" parent="1" source="EiC9moipADHDzp91dUvz-66" target="EiC9moipADHDzp91dUvz-17">
          <mxGeometry relative="1" as="geometry">
            <Array as="points">
              <mxPoint x="290" y="660" />
              <mxPoint x="290" y="1100" />
              <mxPoint x="360" y="1100" />
            </Array>
          </mxGeometry>
        </mxCell>
        <mxCell id="EiC9moipADHDzp91dUvz-68" value="&amp;gt; 0" style="edgeLabel;html=1;align=center;verticalAlign=middle;resizable=0;points=[];" vertex="1" connectable="0" parent="EiC9moipADHDzp91dUvz-67">
          <mxGeometry x="-0.975" y="-2" relative="1" as="geometry">
            <mxPoint y="1" as="offset" />
          </mxGeometry>
        </mxCell>
        <mxCell id="EiC9moipADHDzp91dUvz-70" value="" style="edgeStyle=orthogonalEdgeStyle;rounded=0;orthogonalLoop=1;jettySize=auto;html=1;" edge="1" parent="1" source="EiC9moipADHDzp91dUvz-66" target="EiC9moipADHDzp91dUvz-69">
          <mxGeometry relative="1" as="geometry" />
        </mxCell>
        <mxCell id="EiC9moipADHDzp91dUvz-73" value="= 0" style="edgeLabel;html=1;align=center;verticalAlign=middle;resizable=0;points=[];" vertex="1" connectable="0" parent="EiC9moipADHDzp91dUvz-70">
          <mxGeometry x="0.26" y="1" relative="1" as="geometry">
            <mxPoint as="offset" />
          </mxGeometry>
        </mxCell>
        <mxCell id="EiC9moipADHDzp91dUvz-66" value="argument except command" style="rhombus;whiteSpace=wrap;html=1;" vertex="1" parent="1">
          <mxGeometry x="150" y="620" width="120" height="80" as="geometry" />
        </mxCell>
        <mxCell id="EiC9moipADHDzp91dUvz-100" value="" style="edgeStyle=orthogonalEdgeStyle;rounded=0;orthogonalLoop=1;jettySize=auto;html=1;entryX=0.5;entryY=0;entryDx=0;entryDy=0;" edge="1" parent="1" source="EiC9moipADHDzp91dUvz-69" target="EiC9moipADHDzp91dUvz-108">
          <mxGeometry relative="1" as="geometry">
            <mxPoint x="210" y="820" as="targetPoint" />
            <Array as="points">
              <mxPoint x="210" y="820" />
              <mxPoint x="360" y="820" />
            </Array>
          </mxGeometry>
        </mxCell>
        <mxCell id="EiC9moipADHDzp91dUvz-69" value="PWD" style="rounded=0;whiteSpace=wrap;html=1;" vertex="1" parent="1">
          <mxGeometry x="150" y="730" width="120" height="60" as="geometry" />
        </mxCell>
        <mxCell id="EiC9moipADHDzp91dUvz-77" value="" style="edgeStyle=orthogonalEdgeStyle;rounded=0;orthogonalLoop=1;jettySize=auto;html=1;" edge="1" parent="1" source="EiC9moipADHDzp91dUvz-72" target="EiC9moipADHDzp91dUvz-76">
          <mxGeometry relative="1" as="geometry" />
        </mxCell>
        <mxCell id="EiC9moipADHDzp91dUvz-78" value="&amp;nbsp;= 1" style="edgeLabel;html=1;align=center;verticalAlign=middle;resizable=0;points=[];" vertex="1" connectable="0" parent="EiC9moipADHDzp91dUvz-77">
          <mxGeometry x="0.22" y="-3" relative="1" as="geometry">
            <mxPoint as="offset" />
          </mxGeometry>
        </mxCell>
        <mxCell id="EiC9moipADHDzp91dUvz-79" style="edgeStyle=orthogonalEdgeStyle;rounded=0;orthogonalLoop=1;jettySize=auto;html=1;entryX=0.5;entryY=0;entryDx=0;entryDy=0;" edge="1" parent="1" source="EiC9moipADHDzp91dUvz-72" target="EiC9moipADHDzp91dUvz-17">
          <mxGeometry relative="1" as="geometry">
            <Array as="points">
              <mxPoint x="440" y="660" />
              <mxPoint x="440" y="1100" />
              <mxPoint x="360" y="1100" />
            </Array>
          </mxGeometry>
        </mxCell>
        <mxCell id="EiC9moipADHDzp91dUvz-72" value="argument except command" style="rhombus;whiteSpace=wrap;html=1;" vertex="1" parent="1">
          <mxGeometry x="300" y="620" width="120" height="80" as="geometry" />
        </mxCell>
        <mxCell id="EiC9moipADHDzp91dUvz-102" value="" style="edgeStyle=orthogonalEdgeStyle;rounded=0;orthogonalLoop=1;jettySize=auto;html=1;entryX=0.5;entryY=0;entryDx=0;entryDy=0;" edge="1" parent="1" source="EiC9moipADHDzp91dUvz-76" target="EiC9moipADHDzp91dUvz-108">
          <mxGeometry relative="1" as="geometry">
            <mxPoint x="360" y="820" as="targetPoint" />
          </mxGeometry>
        </mxCell>
        <mxCell id="EiC9moipADHDzp91dUvz-76" value="CWD" style="rounded=0;whiteSpace=wrap;html=1;" vertex="1" parent="1">
          <mxGeometry x="300" y="730" width="120" height="60" as="geometry" />
        </mxCell>
        <mxCell id="EiC9moipADHDzp91dUvz-80" value="&amp;gt; 1" style="text;html=1;align=center;verticalAlign=middle;resizable=0;points=[];autosize=1;strokeColor=none;fillColor=none;" vertex="1" parent="1">
          <mxGeometry x="410" y="638" width="40" height="30" as="geometry" />
        </mxCell>
        <mxCell id="EiC9moipADHDzp91dUvz-87" value="" style="edgeStyle=orthogonalEdgeStyle;rounded=0;orthogonalLoop=1;jettySize=auto;html=1;" edge="1" parent="1" source="EiC9moipADHDzp91dUvz-83" target="EiC9moipADHDzp91dUvz-86">
          <mxGeometry relative="1" as="geometry" />
        </mxCell>
        <mxCell id="EiC9moipADHDzp91dUvz-88" value="= 0" style="edgeLabel;html=1;align=center;verticalAlign=middle;resizable=0;points=[];" vertex="1" connectable="0" parent="EiC9moipADHDzp91dUvz-87">
          <mxGeometry x="-0.62" y="-2" relative="1" as="geometry">
            <mxPoint as="offset" />
          </mxGeometry>
        </mxCell>
        <mxCell id="EiC9moipADHDzp91dUvz-89" style="edgeStyle=orthogonalEdgeStyle;rounded=0;orthogonalLoop=1;jettySize=auto;html=1;entryX=0.5;entryY=0;entryDx=0;entryDy=0;" edge="1" parent="1" source="EiC9moipADHDzp91dUvz-83" target="EiC9moipADHDzp91dUvz-17">
          <mxGeometry relative="1" as="geometry">
            <Array as="points">
              <mxPoint x="590" y="660" />
              <mxPoint x="590" y="1100" />
              <mxPoint x="360" y="1100" />
            </Array>
          </mxGeometry>
        </mxCell>
        <mxCell id="EiC9moipADHDzp91dUvz-90" value="&amp;gt; 0" style="edgeLabel;html=1;align=center;verticalAlign=middle;resizable=0;points=[];" vertex="1" connectable="0" parent="EiC9moipADHDzp91dUvz-89">
          <mxGeometry x="-0.9739" y="4" relative="1" as="geometry">
            <mxPoint y="1" as="offset" />
          </mxGeometry>
        </mxCell>
        <mxCell id="EiC9moipADHDzp91dUvz-83" value="argument except command" style="rhombus;whiteSpace=wrap;html=1;" vertex="1" parent="1">
          <mxGeometry x="450" y="620" width="120" height="80" as="geometry" />
        </mxCell>
        <mxCell id="EiC9moipADHDzp91dUvz-104" value="" style="edgeStyle=orthogonalEdgeStyle;rounded=0;orthogonalLoop=1;jettySize=auto;html=1;entryX=0.5;entryY=0;entryDx=0;entryDy=0;" edge="1" parent="1" source="EiC9moipADHDzp91dUvz-86" target="EiC9moipADHDzp91dUvz-108">
          <mxGeometry relative="1" as="geometry">
            <mxPoint x="510" y="820" as="targetPoint" />
            <Array as="points">
              <mxPoint x="510" y="820" />
              <mxPoint x="360" y="820" />
            </Array>
          </mxGeometry>
        </mxCell>
        <mxCell id="EiC9moipADHDzp91dUvz-86" value="CDUP" style="rounded=0;whiteSpace=wrap;html=1;" vertex="1" parent="1">
          <mxGeometry x="450" y="730" width="120" height="60" as="geometry" />
        </mxCell>
        <mxCell id="EiC9moipADHDzp91dUvz-121" style="edgeStyle=orthogonalEdgeStyle;rounded=0;orthogonalLoop=1;jettySize=auto;html=1;entryX=0.5;entryY=0;entryDx=0;entryDy=0;" edge="1" parent="1" source="EiC9moipADHDzp91dUvz-108" target="EiC9moipADHDzp91dUvz-17">
          <mxGeometry relative="1" as="geometry" />
        </mxCell>
        <mxCell id="EiC9moipADHDzp91dUvz-122" value="-1" style="edgeLabel;html=1;align=center;verticalAlign=middle;resizable=0;points=[];" vertex="1" connectable="0" parent="EiC9moipADHDzp91dUvz-121">
          <mxGeometry x="-0.62" y="-1" relative="1" as="geometry">
            <mxPoint as="offset" />
          </mxGeometry>
        </mxCell>
        <mxCell id="EiC9moipADHDzp91dUvz-174" style="edgeStyle=orthogonalEdgeStyle;rounded=0;orthogonalLoop=1;jettySize=auto;html=1;entryX=0.5;entryY=0;entryDx=0;entryDy=0;" edge="1" parent="1" source="EiC9moipADHDzp91dUvz-108" target="EiC9moipADHDzp91dUvz-172">
          <mxGeometry relative="1" as="geometry" />
        </mxCell>
        <mxCell id="EiC9moipADHDzp91dUvz-175" value="0" style="edgeLabel;html=1;align=center;verticalAlign=middle;resizable=0;points=[];" vertex="1" connectable="0" parent="EiC9moipADHDzp91dUvz-174">
          <mxGeometry x="-0.7401" y="4" relative="1" as="geometry">
            <mxPoint x="-47" y="4" as="offset" />
          </mxGeometry>
        </mxCell>
        <mxCell id="EiC9moipADHDzp91dUvz-108" value="return val" style="rhombus;whiteSpace=wrap;html=1;" vertex="1" parent="1">
          <mxGeometry x="300" y="990" width="120" height="80" as="geometry" />
        </mxCell>
        <mxCell id="EiC9moipADHDzp91dUvz-124" style="edgeStyle=orthogonalEdgeStyle;rounded=0;orthogonalLoop=1;jettySize=auto;html=1;entryX=0.5;entryY=0;entryDx=0;entryDy=0;" edge="1" parent="1" source="EiC9moipADHDzp91dUvz-117" target="EiC9moipADHDzp91dUvz-17">
          <mxGeometry relative="1" as="geometry">
            <Array as="points">
              <mxPoint x="740" y="660" />
              <mxPoint x="740" y="1100" />
              <mxPoint x="360" y="1100" />
            </Array>
          </mxGeometry>
        </mxCell>
        <mxCell id="EiC9moipADHDzp91dUvz-125" value="== 0" style="edgeLabel;html=1;align=center;verticalAlign=middle;resizable=0;points=[];" vertex="1" connectable="0" parent="EiC9moipADHDzp91dUvz-124">
          <mxGeometry x="-0.9802" y="-1" relative="1" as="geometry">
            <mxPoint y="1" as="offset" />
          </mxGeometry>
        </mxCell>
        <mxCell id="EiC9moipADHDzp91dUvz-127" value="" style="edgeStyle=orthogonalEdgeStyle;rounded=0;orthogonalLoop=1;jettySize=auto;html=1;" edge="1" parent="1" source="EiC9moipADHDzp91dUvz-117" target="EiC9moipADHDzp91dUvz-126">
          <mxGeometry relative="1" as="geometry" />
        </mxCell>
        <mxCell id="EiC9moipADHDzp91dUvz-128" value="&amp;gt; 0" style="edgeLabel;html=1;align=center;verticalAlign=middle;resizable=0;points=[];" vertex="1" connectable="0" parent="EiC9moipADHDzp91dUvz-127">
          <mxGeometry x="0.5833" y="1" relative="1" as="geometry">
            <mxPoint y="1" as="offset" />
          </mxGeometry>
        </mxCell>
        <mxCell id="EiC9moipADHDzp91dUvz-117" value="argument except command" style="rhombus;whiteSpace=wrap;html=1;" vertex="1" parent="1">
          <mxGeometry x="600" y="620" width="120" height="80" as="geometry" />
        </mxCell>
        <mxCell id="EiC9moipADHDzp91dUvz-130" value="" style="edgeStyle=orthogonalEdgeStyle;rounded=0;orthogonalLoop=1;jettySize=auto;html=1;" edge="1" parent="1" source="EiC9moipADHDzp91dUvz-126" target="EiC9moipADHDzp91dUvz-129">
          <mxGeometry relative="1" as="geometry" />
        </mxCell>
        <mxCell id="EiC9moipADHDzp91dUvz-133" value="No" style="edgeLabel;html=1;align=center;verticalAlign=middle;resizable=0;points=[];" vertex="1" connectable="0" parent="EiC9moipADHDzp91dUvz-130">
          <mxGeometry x="0.5167" y="3" relative="1" as="geometry">
            <mxPoint as="offset" />
          </mxGeometry>
        </mxCell>
        <mxCell id="EiC9moipADHDzp91dUvz-141" style="edgeStyle=orthogonalEdgeStyle;rounded=0;orthogonalLoop=1;jettySize=auto;html=1;entryX=0;entryY=0.5;entryDx=0;entryDy=0;" edge="1" parent="1" source="EiC9moipADHDzp91dUvz-126" target="EiC9moipADHDzp91dUvz-140">
          <mxGeometry relative="1" as="geometry">
            <Array as="points">
              <mxPoint x="580" y="760" />
              <mxPoint x="580" y="930" />
            </Array>
          </mxGeometry>
        </mxCell>
        <mxCell id="EiC9moipADHDzp91dUvz-126" value="last argument&lt;div&gt;in argv[]?&lt;/div&gt;" style="rhombus;whiteSpace=wrap;html=1;" vertex="1" parent="1">
          <mxGeometry x="600" y="720" width="120" height="80" as="geometry" />
        </mxCell>
        <mxCell id="EiC9moipADHDzp91dUvz-132" style="edgeStyle=orthogonalEdgeStyle;rounded=0;orthogonalLoop=1;jettySize=auto;html=1;entryX=1;entryY=0.5;entryDx=0;entryDy=0;" edge="1" parent="1" source="EiC9moipADHDzp91dUvz-129" target="EiC9moipADHDzp91dUvz-126">
          <mxGeometry relative="1" as="geometry">
            <Array as="points">
              <mxPoint x="730" y="850" />
              <mxPoint x="730" y="760" />
            </Array>
          </mxGeometry>
        </mxCell>
        <mxCell id="EiC9moipADHDzp91dUvz-129" value="MKD" style="rounded=0;whiteSpace=wrap;html=1;" vertex="1" parent="1">
          <mxGeometry x="600" y="820" width="120" height="60" as="geometry" />
        </mxCell>
        <mxCell id="EiC9moipADHDzp91dUvz-177" style="edgeStyle=orthogonalEdgeStyle;rounded=0;orthogonalLoop=1;jettySize=auto;html=1;entryX=0.5;entryY=0;entryDx=0;entryDy=0;" edge="1" parent="1" source="EiC9moipADHDzp91dUvz-140" target="EiC9moipADHDzp91dUvz-172">
          <mxGeometry relative="1" as="geometry">
            <Array as="points">
              <mxPoint x="660" y="1030" />
              <mxPoint x="490" y="1030" />
            </Array>
          </mxGeometry>
        </mxCell>
        <mxCell id="EiC9moipADHDzp91dUvz-140" value="print command" style="shape=parallelogram;perimeter=parallelogramPerimeter;whiteSpace=wrap;html=1;fixedSize=1;" vertex="1" parent="1">
          <mxGeometry x="600" y="900" width="120" height="60" as="geometry" />
        </mxCell>
        <mxCell id="EiC9moipADHDzp91dUvz-157" value="== 0" style="edgeLabel;html=1;align=center;verticalAlign=middle;resizable=0;points=[];" vertex="1" connectable="0" parent="1">
          <mxGeometry x="899" y="662" as="geometry" />
        </mxCell>
        <mxCell id="EiC9moipADHDzp91dUvz-158" value="" style="edgeStyle=orthogonalEdgeStyle;rounded=0;orthogonalLoop=1;jettySize=auto;html=1;" edge="1" parent="1" source="EiC9moipADHDzp91dUvz-160" target="EiC9moipADHDzp91dUvz-164">
          <mxGeometry relative="1" as="geometry" />
        </mxCell>
        <mxCell id="EiC9moipADHDzp91dUvz-159" value="&amp;gt; 0" style="edgeLabel;html=1;align=center;verticalAlign=middle;resizable=0;points=[];" vertex="1" connectable="0" parent="EiC9moipADHDzp91dUvz-158">
          <mxGeometry x="0.5833" y="1" relative="1" as="geometry">
            <mxPoint y="1" as="offset" />
          </mxGeometry>
        </mxCell>
        <mxCell id="EiC9moipADHDzp91dUvz-171" style="edgeStyle=orthogonalEdgeStyle;rounded=0;orthogonalLoop=1;jettySize=auto;html=1;entryX=0.5;entryY=0;entryDx=0;entryDy=0;" edge="1" parent="1" source="EiC9moipADHDzp91dUvz-160" target="EiC9moipADHDzp91dUvz-17">
          <mxGeometry relative="1" as="geometry">
            <Array as="points">
              <mxPoint x="910" y="660" />
              <mxPoint x="910" y="1100" />
              <mxPoint x="360" y="1100" />
            </Array>
          </mxGeometry>
        </mxCell>
        <mxCell id="EiC9moipADHDzp91dUvz-160" value="argument except command" style="rhombus;whiteSpace=wrap;html=1;" vertex="1" parent="1">
          <mxGeometry x="770" y="620" width="120" height="80" as="geometry" />
        </mxCell>
        <mxCell id="EiC9moipADHDzp91dUvz-161" value="" style="edgeStyle=orthogonalEdgeStyle;rounded=0;orthogonalLoop=1;jettySize=auto;html=1;" edge="1" parent="1" source="EiC9moipADHDzp91dUvz-164" target="EiC9moipADHDzp91dUvz-166">
          <mxGeometry relative="1" as="geometry" />
        </mxCell>
        <mxCell id="EiC9moipADHDzp91dUvz-162" value="No" style="edgeLabel;html=1;align=center;verticalAlign=middle;resizable=0;points=[];" vertex="1" connectable="0" parent="EiC9moipADHDzp91dUvz-161">
          <mxGeometry x="0.5167" y="3" relative="1" as="geometry">
            <mxPoint as="offset" />
          </mxGeometry>
        </mxCell>
        <mxCell id="EiC9moipADHDzp91dUvz-163" style="edgeStyle=orthogonalEdgeStyle;rounded=0;orthogonalLoop=1;jettySize=auto;html=1;entryX=0;entryY=0.5;entryDx=0;entryDy=0;" edge="1" parent="1" source="EiC9moipADHDzp91dUvz-164" target="EiC9moipADHDzp91dUvz-167">
          <mxGeometry relative="1" as="geometry">
            <Array as="points">
              <mxPoint x="750" y="760" />
              <mxPoint x="750" y="930" />
            </Array>
          </mxGeometry>
        </mxCell>
        <mxCell id="EiC9moipADHDzp91dUvz-164" value="last argument&lt;div&gt;in argv[]?&lt;/div&gt;" style="rhombus;whiteSpace=wrap;html=1;" vertex="1" parent="1">
          <mxGeometry x="770" y="720" width="120" height="80" as="geometry" />
        </mxCell>
        <mxCell id="EiC9moipADHDzp91dUvz-165" style="edgeStyle=orthogonalEdgeStyle;rounded=0;orthogonalLoop=1;jettySize=auto;html=1;entryX=1;entryY=0.5;entryDx=0;entryDy=0;" edge="1" parent="1" source="EiC9moipADHDzp91dUvz-166" target="EiC9moipADHDzp91dUvz-164">
          <mxGeometry relative="1" as="geometry">
            <Array as="points">
              <mxPoint x="900" y="850" />
              <mxPoint x="900" y="760" />
            </Array>
          </mxGeometry>
        </mxCell>
        <mxCell id="EiC9moipADHDzp91dUvz-166" value="DELE" style="rounded=0;whiteSpace=wrap;html=1;" vertex="1" parent="1">
          <mxGeometry x="770" y="820" width="120" height="60" as="geometry" />
        </mxCell>
        <mxCell id="EiC9moipADHDzp91dUvz-178" style="edgeStyle=orthogonalEdgeStyle;rounded=0;orthogonalLoop=1;jettySize=auto;html=1;entryX=0.5;entryY=0;entryDx=0;entryDy=0;" edge="1" parent="1" source="EiC9moipADHDzp91dUvz-167" target="EiC9moipADHDzp91dUvz-172">
          <mxGeometry relative="1" as="geometry">
            <Array as="points">
              <mxPoint x="830" y="1030" />
              <mxPoint x="490" y="1030" />
            </Array>
          </mxGeometry>
        </mxCell>
        <mxCell id="EiC9moipADHDzp91dUvz-167" value="print command" style="shape=parallelogram;perimeter=parallelogramPerimeter;whiteSpace=wrap;html=1;fixedSize=1;" vertex="1" parent="1">
          <mxGeometry x="770" y="900" width="120" height="60" as="geometry" />
        </mxCell>
        <mxCell id="EiC9moipADHDzp91dUvz-172" value="end" style="rounded=1;whiteSpace=wrap;html=1;" vertex="1" parent="1">
          <mxGeometry x="430" y="1320" width="120" height="60" as="geometry" />
        </mxCell>
        <mxCell id="EiC9moipADHDzp91dUvz-179" value="RMD" style="edgeLabel;html=1;align=center;verticalAlign=middle;resizable=0;points=[];" vertex="1" connectable="0" parent="1">
          <mxGeometry x="999.0000000000005" y="559.8235294117644" as="geometry" />
        </mxCell>
        <mxCell id="EiC9moipADHDzp91dUvz-180" value="== 0" style="edgeLabel;html=1;align=center;verticalAlign=middle;resizable=0;points=[];" vertex="1" connectable="0" parent="1">
          <mxGeometry x="1069" y="662" as="geometry" />
        </mxCell>
        <mxCell id="EiC9moipADHDzp91dUvz-181" value="" style="edgeStyle=orthogonalEdgeStyle;rounded=0;orthogonalLoop=1;jettySize=auto;html=1;" edge="1" parent="1" source="EiC9moipADHDzp91dUvz-183" target="EiC9moipADHDzp91dUvz-187">
          <mxGeometry relative="1" as="geometry" />
        </mxCell>
        <mxCell id="EiC9moipADHDzp91dUvz-182" value="&amp;gt; 0" style="edgeLabel;html=1;align=center;verticalAlign=middle;resizable=0;points=[];" vertex="1" connectable="0" parent="EiC9moipADHDzp91dUvz-181">
          <mxGeometry x="0.5833" y="1" relative="1" as="geometry">
            <mxPoint y="1" as="offset" />
          </mxGeometry>
        </mxCell>
        <mxCell id="EiC9moipADHDzp91dUvz-192" style="edgeStyle=orthogonalEdgeStyle;rounded=0;orthogonalLoop=1;jettySize=auto;html=1;entryX=0.5;entryY=0;entryDx=0;entryDy=0;" edge="1" parent="1" source="EiC9moipADHDzp91dUvz-183" target="EiC9moipADHDzp91dUvz-17">
          <mxGeometry relative="1" as="geometry">
            <Array as="points">
              <mxPoint x="1080" y="660" />
              <mxPoint x="1080" y="1100" />
              <mxPoint x="360" y="1100" />
            </Array>
          </mxGeometry>
        </mxCell>
        <mxCell id="EiC9moipADHDzp91dUvz-183" value="argument except command" style="rhombus;whiteSpace=wrap;html=1;" vertex="1" parent="1">
          <mxGeometry x="940" y="620" width="120" height="80" as="geometry" />
        </mxCell>
        <mxCell id="EiC9moipADHDzp91dUvz-184" value="" style="edgeStyle=orthogonalEdgeStyle;rounded=0;orthogonalLoop=1;jettySize=auto;html=1;" edge="1" parent="1" source="EiC9moipADHDzp91dUvz-187" target="EiC9moipADHDzp91dUvz-189">
          <mxGeometry relative="1" as="geometry" />
        </mxCell>
        <mxCell id="EiC9moipADHDzp91dUvz-185" value="No" style="edgeLabel;html=1;align=center;verticalAlign=middle;resizable=0;points=[];" vertex="1" connectable="0" parent="EiC9moipADHDzp91dUvz-184">
          <mxGeometry x="0.5167" y="3" relative="1" as="geometry">
            <mxPoint as="offset" />
          </mxGeometry>
        </mxCell>
        <mxCell id="EiC9moipADHDzp91dUvz-186" style="edgeStyle=orthogonalEdgeStyle;rounded=0;orthogonalLoop=1;jettySize=auto;html=1;entryX=0;entryY=0.5;entryDx=0;entryDy=0;" edge="1" parent="1" source="EiC9moipADHDzp91dUvz-187" target="EiC9moipADHDzp91dUvz-190">
          <mxGeometry relative="1" as="geometry">
            <Array as="points">
              <mxPoint x="920" y="760" />
              <mxPoint x="920" y="930" />
            </Array>
          </mxGeometry>
        </mxCell>
        <mxCell id="EiC9moipADHDzp91dUvz-187" value="last argument&lt;div&gt;in argv[]?&lt;/div&gt;" style="rhombus;whiteSpace=wrap;html=1;" vertex="1" parent="1">
          <mxGeometry x="940" y="720" width="120" height="80" as="geometry" />
        </mxCell>
        <mxCell id="EiC9moipADHDzp91dUvz-188" style="edgeStyle=orthogonalEdgeStyle;rounded=0;orthogonalLoop=1;jettySize=auto;html=1;entryX=1;entryY=0.5;entryDx=0;entryDy=0;" edge="1" parent="1" source="EiC9moipADHDzp91dUvz-189" target="EiC9moipADHDzp91dUvz-187">
          <mxGeometry relative="1" as="geometry">
            <Array as="points">
              <mxPoint x="1070" y="850" />
              <mxPoint x="1070" y="760" />
            </Array>
          </mxGeometry>
        </mxCell>
        <mxCell id="EiC9moipADHDzp91dUvz-189" value="RMD" style="rounded=0;whiteSpace=wrap;html=1;" vertex="1" parent="1">
          <mxGeometry x="940" y="820" width="120" height="60" as="geometry" />
        </mxCell>
        <mxCell id="EiC9moipADHDzp91dUvz-194" style="edgeStyle=orthogonalEdgeStyle;rounded=0;orthogonalLoop=1;jettySize=auto;html=1;entryX=0.5;entryY=0;entryDx=0;entryDy=0;" edge="1" parent="1" source="EiC9moipADHDzp91dUvz-190" target="EiC9moipADHDzp91dUvz-172">
          <mxGeometry relative="1" as="geometry">
            <Array as="points">
              <mxPoint x="1000" y="1030" />
              <mxPoint x="490" y="1030" />
            </Array>
          </mxGeometry>
        </mxCell>
        <mxCell id="EiC9moipADHDzp91dUvz-190" value="print command" style="shape=parallelogram;perimeter=parallelogramPerimeter;whiteSpace=wrap;html=1;fixedSize=1;" vertex="1" parent="1">
          <mxGeometry x="940" y="900" width="120" height="60" as="geometry" />
        </mxCell>
        <mxCell id="EiC9moipADHDzp91dUvz-197" style="edgeStyle=orthogonalEdgeStyle;rounded=0;orthogonalLoop=1;jettySize=auto;html=1;entryX=0.5;entryY=0;entryDx=0;entryDy=0;" edge="1" parent="1" source="EiC9moipADHDzp91dUvz-195" target="EiC9moipADHDzp91dUvz-196">
          <mxGeometry relative="1" as="geometry" />
        </mxCell>
        <mxCell id="EiC9moipADHDzp91dUvz-195" value="RNFR, RNTO" style="rounded=0;whiteSpace=wrap;html=1;" vertex="1" parent="1">
          <mxGeometry x="1090" y="820" width="120" height="60" as="geometry" />
        </mxCell>
        <mxCell id="EiC9moipADHDzp91dUvz-204" style="edgeStyle=orthogonalEdgeStyle;rounded=0;orthogonalLoop=1;jettySize=auto;html=1;entryX=0.5;entryY=0;entryDx=0;entryDy=0;" edge="1" parent="1" source="EiC9moipADHDzp91dUvz-196" target="EiC9moipADHDzp91dUvz-172">
          <mxGeometry relative="1" as="geometry">
            <Array as="points">
              <mxPoint x="1150" y="1030" />
              <mxPoint x="490" y="1030" />
            </Array>
          </mxGeometry>
        </mxCell>
        <mxCell id="EiC9moipADHDzp91dUvz-196" value="print command" style="shape=parallelogram;perimeter=parallelogramPerimeter;whiteSpace=wrap;html=1;fixedSize=1;" vertex="1" parent="1">
          <mxGeometry x="1090" y="900" width="120" height="60" as="geometry" />
        </mxCell>
        <mxCell id="EiC9moipADHDzp91dUvz-202" value="" style="edgeStyle=orthogonalEdgeStyle;rounded=0;orthogonalLoop=1;jettySize=auto;html=1;" edge="1" parent="1" source="EiC9moipADHDzp91dUvz-198" target="EiC9moipADHDzp91dUvz-195">
          <mxGeometry relative="1" as="geometry" />
        </mxCell>
        <mxCell id="EiC9moipADHDzp91dUvz-205" style="edgeStyle=orthogonalEdgeStyle;rounded=0;orthogonalLoop=1;jettySize=auto;html=1;entryX=0.5;entryY=0;entryDx=0;entryDy=0;" edge="1" parent="1" source="EiC9moipADHDzp91dUvz-198" target="EiC9moipADHDzp91dUvz-17">
          <mxGeometry relative="1" as="geometry">
            <Array as="points">
              <mxPoint x="1230" y="662" />
              <mxPoint x="1230" y="1100" />
              <mxPoint x="360" y="1100" />
            </Array>
          </mxGeometry>
        </mxCell>
        <mxCell id="EiC9moipADHDzp91dUvz-206" value="!= 3" style="edgeLabel;html=1;align=center;verticalAlign=middle;resizable=0;points=[];" vertex="1" connectable="0" parent="EiC9moipADHDzp91dUvz-205">
          <mxGeometry x="-0.9837" y="-4" relative="1" as="geometry">
            <mxPoint as="offset" />
          </mxGeometry>
        </mxCell>
        <mxCell id="EiC9moipADHDzp91dUvz-198" value="argument except command" style="rhombus;whiteSpace=wrap;html=1;" vertex="1" parent="1">
          <mxGeometry x="1090" y="622" width="120" height="80" as="geometry" />
        </mxCell>
        <mxCell id="EiC9moipADHDzp91dUvz-212" style="edgeStyle=orthogonalEdgeStyle;rounded=0;orthogonalLoop=1;jettySize=auto;html=1;entryX=0.5;entryY=0;entryDx=0;entryDy=0;" edge="1" parent="1" source="EiC9moipADHDzp91dUvz-207" target="EiC9moipADHDzp91dUvz-17">
          <mxGeometry relative="1" as="geometry">
            <mxPoint x="1400" y="1030" as="targetPoint" />
            <Array as="points">
              <mxPoint x="1380" y="662" />
              <mxPoint x="1380" y="1100" />
              <mxPoint x="360" y="1100" />
            </Array>
          </mxGeometry>
        </mxCell>
        <mxCell id="EiC9moipADHDzp91dUvz-213" value="&amp;gt;0" style="edgeLabel;html=1;align=center;verticalAlign=middle;resizable=0;points=[];" vertex="1" connectable="0" parent="EiC9moipADHDzp91dUvz-212">
          <mxGeometry x="-0.9923" y="4" relative="1" as="geometry">
            <mxPoint as="offset" />
          </mxGeometry>
        </mxCell>
        <mxCell id="EiC9moipADHDzp91dUvz-214" style="edgeStyle=orthogonalEdgeStyle;rounded=0;orthogonalLoop=1;jettySize=auto;html=1;entryX=0.5;entryY=0;entryDx=0;entryDy=0;" edge="1" parent="1" source="EiC9moipADHDzp91dUvz-207" target="EiC9moipADHDzp91dUvz-215">
          <mxGeometry relative="1" as="geometry">
            <Array as="points">
              <mxPoint x="1301" y="1170" />
              <mxPoint x="490" y="1170" />
            </Array>
          </mxGeometry>
        </mxCell>
        <mxCell id="EiC9moipADHDzp91dUvz-207" value="argument except command" style="rhombus;whiteSpace=wrap;html=1;" vertex="1" parent="1">
          <mxGeometry x="1241" y="622" width="120" height="80" as="geometry" />
        </mxCell>
        <mxCell id="EiC9moipADHDzp91dUvz-215" value="exit(0)" style="shape=parallelogram;perimeter=parallelogramPerimeter;whiteSpace=wrap;html=1;fixedSize=1;" vertex="1" parent="1">
          <mxGeometry x="430" y="1200" width="120" height="60" as="geometry" />
        </mxCell>
      </root>
    </mxGraphModel>
  </diagram>
</mxfile>
